<svg xmlns="http://www.w3.org/2000/svg" data-name="Layer 1" viewBox="0 0 700 550"><path fill="#020202" d="M347.001,190.67412a13.41128,13.41128,0,0,0-.771-3.91808,36.00312,36.00312,0,0,0-1.5029-3.72767,63.74166,63.74166,0,0,0-3.89983-7.03241.3072.3072,0,0,1,.07275-.40982l.00584-.00421a20.46905,20.46905,0,0,0,5.14754-6.2315,54.33973,54.33973,0,0,0,3.50638-7.40668c1.99319-5.11712,3.4465-10.41857,5.04508-15.72049.21216-.66244.40631-1.32536.647-1.98827a8.72543,8.72543,0,0,1,.89075-2.01588,12.11928,12.11928,0,0,1,3.0299-3.12979,35.69581,35.69581,0,0,1,7.41323-4.00088c2.574-1.07507,5.21092-1.96816,7.83638-2.82288l1.9429-.65029a2.58274,2.58274,0,0,0,1.38735-.85566,6.24188,6.24188,0,0,0,.98782-3.44556l.00094-.02854a.74489.74489,0,0,1,.56865-.69894l3.3244-.80326,1.66243-.4014.41567-.10058c.14385-.03556-.059.00233-.08538.0435a.13637.13637,0,0,0-.05755.05146.0291.0291,0,0,0-.01076.007,1.60152,1.60152,0,0,0,.1186-.49028,16.368,16.368,0,0,0-.0814-3.21212c-.10971-1.10221-.27018-2.21939-.44608-3.3099l.76724.65683a19.29171,19.29171,0,0,1-6.39243-1.08349,9.39084,9.39084,0,0,1-2.90241-1.72115,7.95962,7.95962,0,0,1-2.02009-2.76253c-1.7946-4.31573-.27532-8.79708-.02667-12.63609a25.23238,25.23238,0,0,1,1.04069-6.31243,46.33675,46.33675,0,0,0,1.3146-6.01442,27.0703,27.0703,0,0,1,1.39694-6.188,43.73079,43.73079,0,0,1,2.47272-5.81887l.45777.75461a19.88853,19.88853,0,0,1-2.43482-.18994,8.77882,8.77882,0,0,1-2.40465-.691,3.932,3.932,0,0,1-1.92793-1.78944,3.568,3.568,0,0,1-.116-2.66617.41111.41111,0,0,1,.41941-.27742l.014.0014a3.8585,3.8585,0,0,0,2.31459-.5773,9.94476,9.94476,0,0,0,1.95716-1.66547,32.9347,32.9347,0,0,1,3.86591-3.7913,13.8285,13.8285,0,0,1,4.97537-2.24652,29.28375,29.28375,0,0,1,5.3459-.87811,22.40907,22.40907,0,0,1,10.659,1.52,18.8159,18.8159,0,0,1,4.51737,3.01563,9.84665,9.84665,0,0,1,1.77611,2.10289,5.03867,5.03867,0,0,1,.57,1.29215,2.81033,2.81033,0,0,1,.05264,1.49425l-.10924-.33356a32.25289,32.25289,0,0,1,5.51548,4.887,19.87141,19.87141,0,0,1,3.95737,6.23149,10.46555,10.46555,0,0,1,.52888,1.7946c.05872.30736.15088.60911.18105.92115l.07439.93941a10.025,10.025,0,0,1-.06316,1.88254c-.05848.626-.24421,1.22478-.36187,1.839a26.89319,26.89319,0,0,1-3.06639,6.7274,72.26,72.26,0,0,1-9.05905,11.56709l-.63555.66479a5.43972,5.43972,0,0,0-.5876.64139,4.43277,4.43277,0,0,0-.6566,1.46337,20.9442,20.9442,0,0,0-.59718,3.50124,62.07266,62.07266,0,0,0-.23111,7.22751l-.60373-.58947,3.63129-.02339a.62268.62268,0,0,1,.62643.59367l.0014.03416a19.99916,19.99916,0,0,0,1.39226,6.27593,16.54151,16.54151,0,0,0,1.43975,2.86827,18.88789,18.88789,0,0,0,2.03763,2.4809c3.0561,3.15785,6.50541,6.01021,9.853,8.96081,1.67951,1.47507,3.35691,2.9595,4.99619,4.50287q1.22944,1.15717,2.41166,2.3864c.79321.84958,1.50805,1.67249,2.26359,2.465.752.80046,1.54829,1.56957,2.33752,2.39061a13.8258,13.8258,0,0,1,2.20043,2.79248,9.075,9.075,0,0,1,1.08654,3.48767,19.56874,19.56874,0,0,1,.08585,3.4961c-.06737,1.15132-.16,2.26336-.33357,3.41l-.3642,1.75015c-.16187.56514-.37848,1.105-.56678,1.65846a11.628,11.628,0,0,1-.6718,1.6c-.25006.51742-.47929,1.04981-.74806,1.5546-.5766.982-1.08958,2.01354-1.7298,2.9478a91.64181,91.64181,0,0,1-8.20878,10.73716c-2.9361,3.39458-6.01816,6.6474-9.03379,9.92033-.74619.82058-1.49355,1.64068-2.19764,2.47249-.3649.414-.64279.8346-.97121,1.24957a10.17638,10.17638,0,0,0-.73964,1.32068,4.06641,4.06641,0,0,0-.38877,2.64839,3.13052,3.13052,0,0,0,.58479,1.12419,3.60078,3.60078,0,0,0,.98876.815l.03836.02012a.89516.89516,0,0,1,.36982,1.21074l-.02012.036-3.38264,5.70752a.88977.88977,0,0,1-.81473.43555l-.03181-.00187a7.46994,7.46994,0,0,0-4.37561.95437,3.37643,3.37643,0,0,0-1.28,1.55226l-.17053.49918-.14222.604c-.08912.40608-.1738.81684-.24888,1.23087-.59157,3.32252-.92724,6.75125-1.19063,10.14676l-.00187.0262a.78986.78986,0,0,1-.70783.7242c-4.77584.48139-9.56244.88-14.36121.93893-4.796.13708-9.59519-.03415-14.37781-.35181-4.784-.32748-9.54467-.93566-14.27162-1.71693a112.95184,112.95184,0,0,1-14.0239-3.1906l-.01076-.00328a.3648.3648,0,0,1-.23415-.22081,33.62768,33.62768,0,0,1-1.53448-5.92413,45.17305,45.17305,0,0,1-.63485-6.04951,24.62738,24.62738,0,0,1,.46643-6.06308c.37309-1.99108.89308-3.94521,1.44536-5.88576a.08824.08824,0,0,1,.17029.04631c-.98244,3.89141-1.93307,7.87685-1.59858,11.87727a44.61943,44.61943,0,0,0,.77894,5.95734,33.0542,33.0542,0,0,0,1.6374,5.73466l-.24467-.22362a112.65221,112.65221,0,0,0,13.94788,2.91271c4.70637.69332,9.44081,1.214,14.19115,1.45495,4.74754.24514,9.50537.37754,14.25548.18619,4.75292-.10947,9.48782-.55578,14.20706-1.08209l-.7097.7504c.23181-3.46147.52748-6.8916,1.10314-10.34793.07369-.43227.1579-.865.24819-1.29916l.14666-.65262c.06409-.23158.15485-.48467.23555-.7242a5.076,5.076,0,0,1,1.92559-2.37377,7.4755,7.4755,0,0,1,2.70242-1.07227,10.83608,10.83608,0,0,1,2.81938-.18666l-.84631.43321,3.36931-5.71548.38784,1.26688a5.234,5.234,0,0,1-1.59741-1.28,4.933,4.933,0,0,1-.94969-1.82032,5.83127,5.83127,0,0,1,.48069-3.85118,11.89882,11.89882,0,0,1,.89051-1.59764c.35836-.46409.705-.97309,1.07765-1.39694.73636-.87391,1.49074-1.70477,2.24441-2.53751,3.02616-3.29914,6.079-6.537,8.97672-9.90255a98.77769,98.77769,0,0,0,8.06165-10.50746c.629-.90479,1.11484-1.8774,1.67577-2.81494.258-.47812.47227-.97261.71133-1.45775a10.36076,10.36076,0,0,0,.63227-1.47881c.1724-.502.37824-.99976.52678-1.50408l.327-1.52512c.16842-1.05683.269-2.17307.33778-3.24861a17.87235,17.87235,0,0,0-.055-3.18733,7.35006,7.35006,0,0,0-.86385-2.87013c-.974-1.73051-2.73587-3.19715-4.25585-4.86544-.77941-.828-1.52442-1.69494-2.25073-2.48043q-1.12911-1.19226-2.3333-2.33681c-1.60185-1.52653-3.25914-3.011-4.92461-4.49163-3.32043-2.98008-6.72272-5.88016-9.84151-9.17883a20.137,20.137,0,0,1-2.16558-2.71762,17.84121,17.84121,0,0,1-1.52045-3.12464,21.17377,21.17377,0,0,1-1.39553-6.76107l.62782.62736-3.63129-.0234h-.01474a.59417.59417,0,0,1-.58946-.58993,63.12046,63.12046,0,0,1,.33262-7.3744,21.91111,21.91111,0,0,1,.68257-3.6865,5.31551,5.31551,0,0,1,.87718-1.82641,6.47269,6.47269,0,0,1,.65309-.69613l.63625-.64794a71.75316,71.75316,0,0,0,9.09625-11.29108,26.16009,26.16009,0,0,0,3.07294-6.4902c.11719-.57918.30572-1.15273.36724-1.738a9.35023,9.35023,0,0,0,.08328-1.76138l-.06059-.88326c-.02619-.2938-.11415-.58058-.16771-.8711a9.80589,9.80589,0,0,0-.4938-1.708,19.258,19.258,0,0,0-3.8072-6.05278,31.701,31.701,0,0,0-5.3784-4.81678.29369.29369,0,0,1-.11626-.305l.007-.029a3.36768,3.36768,0,0,0-.56584-2.30874,9.302,9.302,0,0,0-1.66594-1.98828,17.1966,17.1966,0,0,0-4.37445-2.91224A21.8466,21.8466,0,0,0,392.31428,63.095a28.60817,28.60817,0,0,0-5.22075.894,13.15646,13.15646,0,0,0-4.72649,2.16371,30.513,30.513,0,0,0-3.72416,3.77165,10.68369,10.68369,0,0,1-2.09166,1.83342,4.7147,4.7147,0,0,1-2.8002.742l.43321-.27555a2.7112,2.7112,0,0,0,.12374,1.95132,3.00935,3.00935,0,0,0,1.51764,1.32957,7.82756,7.82756,0,0,0,2.1429.56935,18.85866,18.85866,0,0,0,2.28956.13848.5241.5241,0,0,1,.5111.5366.53688.53688,0,0,1-.05333.21848,42.9794,42.9794,0,0,0-2.30781,5.69957,25.82412,25.82412,0,0,0-1.24466,5.98261c-.42081,4.2535-2.188,8.19684-2.138,12.17761a24.6686,24.6686,0,0,1-.35157,3.206c-.15392,1.02641-.295,2.03833-.37357,3.0465a12.06927,12.06927,0,0,0,.68865,5.766,6.96364,6.96364,0,0,0,4.093,3.65188,17.8,17.8,0,0,0,5.86051.94688.79307.79307,0,0,1,.76724.65731c.19415,1.14478.33637,2.275.44771,3.42779a17.50788,17.50788,0,0,1,.0524,3.57094,2.72023,2.72023,0,0,1-.3621,1.12607c-.04234.06175-.08491.12117-.1338.17964a1.8429,1.8429,0,0,1-.21941.18948,1.58121,1.58121,0,0,1-.47883.19321l-.41075.09637-1.644.38643-3.28814.77192.56935-.72654a9.66465,9.66465,0,0,1-.32257,2.23295,5.82648,5.82648,0,0,1-1.01378,2.12816,3.45643,3.45643,0,0,1-.9759.851,5.55617,5.55617,0,0,1-1.07694.46315l-1.98547.65029c-2.625.83507-5.22426,1.69775-7.7496,2.73306a34.417,34.417,0,0,0-7.14564,3.78755,11.14864,11.14864,0,0,0-2.72628,2.75037,7.47967,7.47967,0,0,0-.79741,1.74875c-.2407.6297-.44514,1.28794-.66409,1.93541-1.67062,5.23268-3.22428,10.56641-5.32226,15.706a55.23843,55.23843,0,0,1-3.68954,7.47779,21.15457,21.15457,0,0,1-5.50543,6.297l.0786-.41356a64.204,64.204,0,0,1,3.74194,7.20037,36.32347,36.32347,0,0,1,1.41518,3.80486,13.63941,13.63941,0,0,1,.67438,4.00322.08861.08861,0,0,1-.08866.088A.09.09,0,0,1,347.001,190.67412Z"/><path fill="#020202" d="M384.28257 87.88815a6.78594 6.78594 0 012.39553-.9787 8.65386 8.65386 0 012.61306-.15579 7.33932 7.33932 0 012.53938.705 5.84534 5.84534 0 012.0505 1.59717 22.08142 22.08142 0 00-2.34827-.80794 13.23046 13.23046 0 00-2.3464-.41871A26.74951 26.74951 0 00384.28257 87.88815zM373.12787 89.05585a4.36856 4.36856 0 011.43039-.6849 6.39093 6.39093 0 011.54314-.25122 5.61805 5.61805 0 011.574.17543 3.21974 3.21974 0 011.41893.76069l-1.516.0772c-.4835.03134-.96092.04538-1.44256.06643A14.81192 14.81192 0 01373.12787 89.05585zM389.47093 94.5682a1.6223 1.6223 0 000-3.24265 1.6223 1.6223 0 000 3.24265zM407.37038 103.25851a1.6223 1.6223 0 000-3.24265 1.6223 1.6223 0 000 3.24265zM376.75973 95.47615a1.6223 1.6223 0 000-3.24266 1.6223 1.6223 0 000 3.24266zM376.75964 106.955a14.00088 14.00088 0 001.07062.96185 8.27373 8.27373 0 001.07344.73309 10.60973 10.60973 0 001.17753.58339c.41847.18573.86314.33683 1.34782.57543a3.48347 3.48347 0 01-4.23223-1.33987A2.49556 2.49556 0 01376.75964 106.955zM405.83994 110.22516c-1.22525.92911-2.47786 1.75763-3.76884 2.55107-1.29167.785-2.61166 1.52232-3.97421 2.17448a23.66394 23.66394 0 01-8.62585 2.51084 23.411 23.411 0 008.37766-2.99084c1.30221-.72233 2.55716-1.52606 3.77913-2.3733 1.215-.85 2.41377-1.75343 3.523-2.705l.01006-.00889a.54087.54087 0 11.70431.821zM380.78063 92.9468a5.29112 5.29112 0 01-.1104 3.27013 6.00065 6.00065 0 01-.78432 1.51483 12.50757 12.50757 0 00-.93028 1.20794c-.48093.77893-.59368 1.6781.11017 2.15763a2.79937 2.79937 0 001.31227.45941 10.33534 10.33534 0 001.5698.08046 5.14771 5.14771 0 01-1.57752.45006 2.98633 2.98633 0 01-1.74033-.2676 1.96679 1.96679 0 01-1.08349-1.62852 3.19805 3.19805 0 01.48537-1.81144 10.40367 10.40367 0 011.0477-1.27343 7.11036 7.11036 0 00.81777-1.2187A8.48729 8.48729 0 00380.78063 92.9468z"/><path fill="#020202" d="M411.02086 103.59848c1.57518-2.96754.88924-4.03659-.79694-7.27924s-8.69032 3.50206-8.69032 3.50206V88.145c3.24266-1.94836 3.50207-8.947 0-12.70842s-21.2718 1.29706-21.2718 1.29706l-.00373-.00435c-8.29444 0-6.47866-4.66287-6.47866-4.66287 3.8872.25562 5.44736-4.67168 9.599-7.00752 4.14281-2.33584 14.7819-3.88719 21.00493 0 6.23185 3.896 5.19174 6.74308 5.19174 6.74308s10.119 6.75191 10.119 15.04634c0 5.07956-4.37088 11.51822-8.23907 16.22635M379.96708 126.91031c.94993 2.15529 1.82336 4.33538 2.65563 6.529q1.25579 3.28769 2.40886 6.60857l-1.3787-.23017q1.41789-2.01261 2.88932-3.98545 1.44876-1.98945 2.95224-3.93819c.98619-1.31133 1.9974-2.60394 3.0161-3.89094 1.00513-1.29682 2.05588-2.5595 3.087-3.83714l.02994-.03743a.52224.52224 0 01.266-.1759c3.18241-.90011 6.37067-1.782 9.602-2.5333-3.04276 1.32209-6.12833 2.51459-9.22 3.68837l.29567-.21286c-.93589 1.34875-1.8519 2.71248-2.81376 4.042-.94829 1.33986-1.90384 2.67365-2.88464 3.98918q-1.45191 1.98735-2.9485 3.941-1.48138 1.96558-3.01142 3.89422l-.02409.03041a.7786.7786 0 01-1.35484-.26058c-.67484-2.24418-1.30548-4.50287-1.90664-6.77091C381.02086 131.49411 380.456 129.21437 379.96708 126.91031zM378.52265 132.193l-4.48672 6.73488 2.92183-7.54656a.88673.88673 0 111.65378.64046A.92622.92622 0 01378.52265 132.193z"/><path fill="#020202" d="M396.08428 124.53046c.39088 1.433.6952 2.87715 1.00794 4.32041.29357 1.44559.57333 2.89306.82315 4.34427.51134 2.90148.935 5.81372 1.30875 8.733l-1.46267-.53052c1.01356-.90946 2.00723-1.84045 3.03716-2.73166 1.02758-.894 2.04792-1.796 3.10007-2.66383 2.08933-1.75108 4.21538-3.46287 6.45488-5.05115-1.7595 2.10757-3.63293 4.09257-5.54284 6.03828-.94736.98057-1.92653 1.927-2.89868 2.88136-.96958.95671-1.97588 1.87413-2.96183 2.81306a.86891.86891 0 01-1.4608-.516l-.00187-.0145c-.38339-2.91785-.71695-5.84179-.96279-8.77742-.12866-1.46712-.22737-2.938-.31251-4.4107C396.14627 127.49 396.07212 126.01582 396.08428 124.53046zM347.0784 191.24253a92.81075 92.81075 0 011.14665-13.0169 59.81813 59.81813 0 013.27294-12.75491L357.187 153.731c1.868-3.91293 3.74942-7.82586 5.759-11.69014-1.33261 4.14732-2.86382 8.21743-4.50075 12.24639-.80561 2.021-1.68443 4.0107-2.56512 6.00506-.87133 1.9836-1.959 3.96486-2.75481 5.853a78.83506 78.83506 0 00-3.5534 12.33387C348.658 182.70043 347.859 186.95908 347.0784 191.24253zM414.76614 157.468l-4.83713 7.13487c-1.61776 2.36348-3.17844 4.75924-4.71292 7.16388l-2.32956 3.59294c-.74011 1.21823-1.50524 2.4285-2.1726 3.69071a25.33829 25.33829 0 00-2.92862 7.98632.30131.30131 0 01-.3118.25357l-.01731-.00094a13.81467 13.81467 0 00-5.48788 1.00162 10.08149 10.08149 0 00-2.32722 1.38852 7.89557 7.89557 0 00-1.7277 1.97518l.11579-.49543a25.42045 25.42045 0 002.57 7.24481 32.6516 32.6516 0 001.98758 3.3244l1.12934 1.57659 1.25355 1.48115c.39953.5118.88794.9408 1.33636 1.41a14.45488 14.45488 0 001.41939 1.33331l1.48864 1.26922 1.59576 1.141a32.21644 32.21644 0 003.356 2.08c1.14923.65918 2.38149 1.156 3.56954 1.78758l.00866.00468a.088.088 0 01-.0655.16234q-.96525-.2772-1.9298-.58432a19.90462 19.90462 0 01-1.92091-.64748 33.26246 33.26246 0 01-3.66825-1.76278 27.0807 27.0807 0 01-6.49582-4.99175 26.713 26.713 0 01-7.16107-14.66225l-.004-.03228a.64544.64544 0 01.11977-.46362 9.32842 9.32842 0 012.2133-2.23062 10.34392 10.34392 0 012.76558-1.32723 16.0084 16.0084 0 015.91267-.59368l-.32912.25216a47.9903 47.9903 0 012.78616-8.238 55.28352 55.28352 0 013.92158-7.76036 77.01361 77.01361 0 014.995-7.09324 69.55268 69.55268 0 015.748-6.48506.08839.08839 0 01.12515.00094A.09045.09045 0 01414.76614 157.468z"/><path fill="#020202" d="M411.555 204.87182a33.04214 33.04214 0 01-4.90847-3.26031 34.73744 34.73744 0 01-4.32953-4.03316c-.67274-.72654-1.2739-1.52091-1.88138-2.30593a21.17473 21.17473 0 01-1.55156-2.55482 11.29871 11.29871 0 01-1.40091-5.73372 14.82034 14.82034 0 002.13657 5.32109 29.9387 29.9387 0 003.50007 4.55058c1.27788 1.43811 2.65658 2.79576 4.07433 4.11878C408.621 202.28753 410.06094 203.59932 411.555 204.87182zM396.08428 217.14066a68.60031 68.60031 0 01-3.64977-5.92086 63.96749 63.96749 0 01-3.0582-6.275 32.97562 32.97562 0 01-2.9885-13.77806.88231.88231 0 011.76348.06316c-.0007.01918-.0021.03789-.004.05708l-.00328.03134a25.32642 25.32642 0 00.298 6.69137 43.93566 43.93566 0 001.7574 6.62026 63.3901 63.3901 0 002.62734 6.38915A68.47109 68.47109 0 00396.08428 217.14066zM341.09065 175.82894a6.91424 6.91424 0 012.22546-.34994 8.25809 8.25809 0 012.25307.284 5.46872 5.46872 0 012.08723 1.03718 3.00452 3.00452 0 011.15975 1.99014 5.03671 5.03671 0 00-1.629-1.28887 9.17741 9.17741 0 00-1.90594-.69753C343.95026 176.42355 342.55285 176.21069 341.09065 175.82894z"/><path fill="#020202" d="M387.2023 192.90847c-4.38614.56421-8.773.99134-13.164 1.33659-2.19529.17778-4.39175.32936-6.58915.4683l-.82362.05427a8.59253 8.59253 0 01-.9015.02667 16.4182 16.4182 0 01-1.73168-.14129c-1.12723-.13941-2.21961-.37613-3.30638-.61145-2.16559-.50432-4.29211-1.09519-6.424-1.64583a50.57455 50.57455 0 00-6.42939-1.37121 13.6342 13.6342 0 00-1.61541-.094 3.26925 3.26925 0 00-1.47858.27274.84032.84032 0 00-.24023.18994c-.07251.095-.14386.21614-.21614.32281-.153.21239-.25988.46408-.39251.69379a12.16632 12.16632 0 00-1.19554 4.65069 5.64521 5.64521 0 00.56584 2.97634 2.96187 2.96187 0 002.29915 1.44512 4.8488 4.8488 0 001.46221.05053 6.42014 6.42014 0 001.45776-.39064 5.64873 5.64873 0 011.83506-.34338 6.8462 6.8462 0 011.83834.25777 18.1849 18.1849 0 013.20229 1.32022 63.72625 63.72625 0 005.98144 2.59271c2.036.7911 4.09538 1.53027 6.16483 2.23716a117.62825 117.62825 0 0012.6045 3.6051 41.53 41.53 0 0012.99866 1.17425l.00538-.00047a.08815.08815 0 01.02854.17357 34.90525 34.90525 0 01-13.28707.00748 88.90351 88.90351 0 01-12.94533-3.17656 81.09437 81.09437 0 01-12.328-5.148A18.64833 18.64833 0 00351.716 202.549a4.32621 4.32621 0 00-2.82242-.07157 7.64142 7.64142 0 01-1.752.36958 6.02457 6.02457 0 01-1.82126-.18619 4.33389 4.33389 0 01-.8704-.277 2.87013 2.87013 0 01-.84046-.4552c-.12888-.09684-.26572-.18432-.38385-.29146l-.31742-.363a3.45648 3.45648 0 01-.5062-.79484 6.47727 6.47727 0 01-.46432-3.47271 14.38162 14.38162 0 01.782-3.29679 15.89576 15.89576 0 01.67391-1.55133c.14479-.24608.25848-.50432.4297-.73917.08351-.12023.15345-.23812.24842-.35976a1.35017 1.35017 0 01.40046-.32187 4.03282 4.03282 0 011.73378-.35227 14.08894 14.08894 0 011.68512.07064c4.42965.47157 8.75965 1.42969 13.08146 2.1464 1.07554.19415 2.15319.35415 3.21306.49263a14.98829 14.98829 0 001.56372.11555c.26549.01029.47719-.00889.75063-.01544l.82713-.03836c2.20464-.10853 4.41046-.20491 6.61745-.27461 4.41351-.15018 8.83076-.218 13.24918-.14971a.08823.08823 0 01.00865.1759zM378.31621 149.49875a1.6223 1.6223 0 000-3.24265 1.6223 1.6223 0 000 3.24265zM369.95016 165.84173a1.6223 1.6223 0 000-3.24266 1.6223 1.6223 0 000 3.24266zM364.89162 180.43367a1.6223 1.6223 0 000-3.24266 1.6223 1.6223 0 000 3.24266z"/><path fill="#020202" d="M360.82211 193.31855a1.498 1.498 0 011.54254-1.3398 1.55393 1.55393 0 011.54253 1.86867zM359.63852 215.45433a1.6223 1.6223 0 000-3.24266 1.6223 1.6223 0 000 3.24266zM345.95725 225.84557c-.23953-.0669-.42152-.11509-.5366-.15345zM346.82905 226.09492c-.34479-.0959-.64186-.18245-.8718-.24935zM360.62605 265.46374c.05755.23953.09568.47906.14363.70877a7.1687 7.1687 0 01-2.74008-2.43319 13.79005 13.79005 0 01-1.763-3.96673 31.55063 31.55063 0 01-.83344-4.34052c-.2014-1.47554-.31625-2.96043-.37379-4.45515-.10527-1.49471-.11509-2.99879-.11509-4.50333-.01918-1.50407.02877-3.018.05754-4.5314l.29708-8.57532c1.38922.35462 2.788.661 4.18707.94829-.44093 3.047-.76654 6.10331-.94876 9.16947a71.14908 71.14908 0 00.47906 14.76424c.1055.61333.19181 1.22665.31625 1.84l.42152 1.8105z"/><path fill="#020202" d="M372.11385,404.67775c2.76885,19.44021,6.12226,38.842,11.25786,57.80319-10.11776,0-23.73254-14.78342-23.73254-14.78342l8.06726-22.57326s-19.35389-68.48609-22.75525-104.28162c-3.40136-35.80489,2.32816-94.62327,2.32816-94.62327a126.00577,126.00577,0,0,0,13.136,2.66335c-.2683,1.33191-.50783,2.683-.71859,4.02427-4.29257-.59414-8.56573-1.29355-12.81012-2.29a58.1945,58.1945,0,0,0,8.28784,2.7209,54.3608,54.3608,0,0,0-1.65752,8.49859,55.873,55.873,0,0,0-.37379,9.22654,30.4033,30.4033,0,0,0,1.70547,9.18865,12.71156,12.71156,0,0,0,2.45283,4.08135,6.79308,6.79308,0,0,0,3.51621,2.05985c.43111,2.07951.82408,4.1679,1.12092,6.26612.72818,4.83876,1.19765,9.70606,1.54267,14.58272.34479,4.88649.546,9.76314.67063,14.66881l.4407,14.72635c.42175,9.81086.81449,19.62219,1.50431,29.42369C367.49567,365.65372,369.364,385.22819,372.11385,404.67775Z"/><path fill="#020202" d="M359.85951,232.93553c.16281-1.36045.345-2.71154.55579-4.05281a156.645,156.645,0,0,0,41.63966.64186q.546,2.48628,1.02525,4.98239c-2.37611,0-4.72368.14363-7.09019.182l-3.53539.05754c-1.17847.02854-2.35693.04772-3.5258.02854-1.17847-.01871-2.35693-.01871-3.53563-.00936l-3.5258-.0959c-2.34733-.00936-4.69467-.182-7.03242-.27789q-7.04235-.43088-14.02694-1.32209C360.49179,233.02208,360.17577,232.97389,359.85951,232.93553Z"/><path fill="#020202" d="M413.72475,469.48482c-10.89389,5.83478-30.353-7.00388-30.353-7.00388-2.23249-9.562-4.024-19.21-5.59548-28.88709q-2.41436-14.50086-4.21562-29.10744-3.63609-29.18907-5.55711-58.56014c-.72818-9.773-1.19765-19.56464-1.66711-29.36615l-.527-14.69781c-.134-4.90519-.40234-9.83986-.85262-14.7357-.4407-4.89584-1.00607-9.79168-1.82056-14.659-.39275-2.42429-.891-4.84812-1.45636-7.25323l-.94852-3.57375-.4407-1.75343c-.134-.59368-.22994-1.19764-.34479-1.79132a70.59541,70.59541,0,0,1-.90081-14.58273c.1055-3.05633.32585-6.11266.66128-9.14981q.43088.08631.86221.17216a113.05225,113.05225,0,0,0,14.15139,1.76325,124.03051,124.03051,0,0,0,14.24729-.029c2.37611-.08608,4.733-.41169,7.09-.64186,2.35693-.29707,4.69467-.68958,7.02306-1.12092h.00936c9.98372,51.24.13427,105.00957.13427,105.00957C411.00385,377.2662,413.72475,469.48482,413.72475,469.48482Z"/><path fill="#020202" d="M384.66924,463.2552a23.69638,23.69638,0,0,1-4.37749,9.8263,18.55476,18.55476,0,0,1-3.96065,3.83433,15.56457,15.56457,0,0,1-5.03993,2.3326,31.7181,31.7181,0,0,0-4.97771,1.5401,9.361,9.361,0,0,0-2.19716,1.272c-.60678.52116-1.16443,1.26174-.90946,1.96629a1.58828,1.58828,0,0,0,.71508.85472,3.006,3.006,0,0,0,1.13893.43228c.87928.15532,1.745.33122,2.62148.45941a49.58612,49.58612,0,0,0,5.264.54128,35.74958,35.74958,0,0,0,5.22075-.1338,13.1269,13.1269,0,0,0,4.78309-1.32864,97.53021,97.53021,0,0,1,9.43286-5.10028,23.544,23.544,0,0,1,5.26379-1.6622,9.88656,9.88656,0,0,1,2.89446-.059,12.784,12.784,0,0,1,1.36419.27134l.65613.1455a3.37668,3.37668,0,0,0,.54175.08327,3.50508,3.50508,0,0,0,3.54054-2.34195,4.10467,4.10467,0,0,0,.22292-1.1897l.08935-1.33144c.058-.88747.11719-1.77495.19626-2.66242a.08852.08852,0,0,1,.17637,0c.0793.88747.13824,1.77495.19625,2.66242l.08936,1.33144a4.36607,4.36607,0,0,1-.11438,1.43952,4.56787,4.56787,0,0,1-4.45164,3.46989,4.82832,4.82832,0,0,1-.77823-.07251l-.65146-.10386a11.43219,11.43219,0,0,0-1.25893-.17357,8.34158,8.34158,0,0,0-2.40254.20117,25.24862,25.24862,0,0,0-4.8142,1.71179c-3.16721,1.43062-6.23851,3.16534-9.39894,4.83643a13.37917,13.37917,0,0,1-5.468,1.26735,29.79368,29.79368,0,0,1-5.4156-.29941c-1.7822-.21942-3.53422-.57824-5.28321-.91321l-2.61283-.52069a4.01361,4.01361,0,0,1-1.33495-.50058,2.14111,2.14111,0,0,1-.96373-1.13028,1.97332,1.97332,0,0,1-.10783-.77893,2.61482,2.61482,0,0,1,.207-.73637,4.2441,4.2441,0,0,1,.8587-1.16677,10.13634,10.13634,0,0,1,2.25284-1.61916,30.18328,30.18328,0,0,1,5.02309-2.07576,18.73629,18.73629,0,0,0,4.54286-2.2016,20.11867,20.11867,0,0,0,3.78989-3.41423,31.29512,31.29512,0,0,0,5.26566-9.00525l.00234-.00655a.08822.08822,0,0,1,.16889.04865Z"/><path fill="#020202" d="M362.46954 450.6383a23.69658 23.69658 0 01-4.37749 9.8263 18.54439 18.54439 0 01-3.96088 3.83433 15.55276 15.55276 0 01-5.03993 2.3326 31.67468 31.67468 0 00-4.97748 1.54056 9.34406 9.34406 0 00-2.19716 1.27156c-.60677.52117-1.16443 1.26174-.90946 1.96629a1.58509 1.58509 0 00.71508.85473 3.00687 3.00687 0 001.13893.43274c.87929.15485 1.74477.33122 2.62148.45894a49.46085 49.46085 0 005.264.54128 35.68465 35.68465 0 005.22074-.1338 13.13288 13.13288 0 004.78286-1.32817 97.46662 97.46662 0 019.43309-5.10075 23.51763 23.51763 0 015.26355-1.66173 9.88784 9.88784 0 012.8947-.05941 13.03085 13.03085 0 011.36419.27134l.65614.146a3.47106 3.47106 0 004.08228-2.25915 4.10128 4.10128 0 00.22292-1.18969l.08936-1.33144c.058-.88748.11719-1.77495.19625-2.66242a.08852.08852 0 01.17637 0c.07907.88747.13825 1.77494.19626 2.66242l.08935 1.33144a4.36853 4.36853 0 01-.11438 1.44 4.568 4.568 0 01-4.45164 3.46943 4.83381 4.83381 0 01-.77847-.07252l-.65145-.10385a11.6451 11.6451 0 00-1.2587-.17357 8.326 8.326 0 00-2.40254.20163 25.246 25.246 0 00-4.8142 1.71133c-3.16744 1.43062-6.23874 3.16533-9.39917 4.83642a13.363 13.363 0 01-5.46776 1.26735 29.74859 29.74859 0 01-5.4156-.29941c-1.7822-.21894-3.53422-.57824-5.2832-.9132l-2.61283-.5207a4.01378 4.01378 0 01-1.335-.50057 2.14252 2.14252 0 01-.964-1.13028 1.9721 1.9721 0 01-.1076-.77847 2.59849 2.59849 0 01.207-.73636 4.24146 4.24146 0 01.85871-1.16724 10.15506 10.15506 0 012.2526-1.61916 30.2256 30.2256 0 015.02332-2.07576 18.71385 18.71385 0 004.54263-2.20161 20.13382 20.13382 0 003.79012-3.41375 31.30381 31.30381 0 005.26566-9.00573l.00234-.00608a.08818.08818 0 01.16889.04819zM342.27847 201.63537a19.50176 19.50176 0 01-7.41277-3.2851 35.93339 35.93339 0 01-6.09816-5.39221 61.862 61.862 0 01-5.4825-6.03734 18.446 18.446 0 01-3.188-7.642 48.5881 48.5881 0 01-.71976-8.16036c-.04889-2.71528-.06175-5.38378-.14643-8.07848-.17778-5.37537-.33216-10.75588-.62643-16.13125l-.109-2.01541-.05216-1.00817a3.476 3.476 0 00-.13427-.80982 2.86055 2.86055 0 00-4.01819-1.64488l-1.82337.88934c-1.2194.58525-2.44581 1.15694-3.68346 1.70571a59.65288 59.65288 0 01-7.61463 2.88978 16.03327 16.03327 0 01-2.02219.44117 4.27369 4.27369 0 01-2.19226-.12679 1.61319 1.61319 0 01-.51391-.38829 4.272 4.272 0 00-.32982-.3317c-.23742-.21754-.49426-.42666-.75484-.6311-.52233-.40935-1.06689-.80046-1.61518-1.18595-2.20208-1.53448-4.4755-2.98382-6.73722-4.44812-2.26781-1.45776-4.56462-2.86874-6.78587-4.42193-.55415-.39158-1.10361-.7897-1.633-1.23835a3.25619 3.25619 0 01-.75953-.84022.7403.7403 0 01-.06923-.21894.47964.47964 0 01.10853-.35509.64408.64408 0 01.43391-.19415 3.03089 3.03089 0 01.56257.01731c1.36349.10667 2.69961.32 4.03714.52444 2.67154.429 5.31993.94408 7.966 1.50735l-.36163.793a33.86792 33.86792 0 01-5.20648-4.47573 5.34724 5.34724 0 01-1.02385-1.58735 1.39713 1.39713 0 01.14644-1.33144 1.78324 1.78324 0 011.08279-.58853 5.80486 5.80486 0 011.87085.00187 9.93854 9.93854 0 011.76208.38128 20.36114 20.36114 0 016.03126 3.468 39.865 39.865 0 015.007 4.7349l-1.16443-.014a40.88544 40.88544 0 014.83713-4.63479 20.62829 20.62829 0 012.82523-1.93027 6.85421 6.85421 0 013.56322-1.03718l-.84513 1.16724a2.39483 2.39483 0 00-.27672-.4014 3.35619 3.35619 0 00-.41871-.42105 4.57562 4.57562 0 00-1.055-.6573 7.19774 7.19774 0 00-2.5754-.58338c-.94993-.06971-1.73939.09076-2.98289.05193a5.28979 5.28979 0 01-3.24206-1.34455 7.32689 7.32689 0 01-1.85518-2.82288c-.05309-.12678-.09473-.2559-.14034-.38362l-.06831-.20444-.07251-.30035a2.22068 2.22068 0 01.15719-1.25519 2.32906 2.32906 0 011.93611-1.374 2.41441 2.41441 0 011.18338.21239l.64514.27415q.65472.25894 1.33588.4697a23.19845 23.19845 0 002.78289.67367 44.31392 44.31392 0 005.81864.42058 13.49685 13.49685 0 016.115 1.51858 12.09112 12.09112 0 012.55973 1.91108l.56631.552.50572.51087c.33169.34807.68537.6559 1.03695.97028.36186.3055.71718.58479 1.12794.89917a5.401 5.401 0 011.22431 1.21355 14.153 14.153 0 011.4098 2.85143c1.44817 3.75059 2.67716 7.51007 4.00369 11.25224q1.97751 5.602 4.08369 11.16663c2.84089 7.40435 5.77582 14.78156 8.86608 22.09514a.08816.08816 0 01-.16047.073c-3.439-7.16154-6.70611-14.40776-9.74747-21.75362-1.53214-3.66825-3.00534-7.36271-4.38614-11.09505-1.39764-3.715-2.71294-7.48107-4.196-11.1105a12.92464 12.92464 0 00-1.254-2.45751 3.67232 3.67232 0 00-.90408-.8477c-.38386-.2807-.8159-.60584-1.21168-.94221-.39017-.34386-.786-.68912-1.141-1.05777l-.54362-.545-.50292-.4842a10.314 10.314 0 00-2.2-1.6332 11.70973 11.70973 0 00-5.34495-1.27483 45.26571 45.26571 0 01-6.04975-.422 24.96388 24.96388 0 01-3.00416-.71437q-.74316-.226-1.47414-.51181c-.24327-.09684-.4856-.197-.7263-.305a.524.524 0 00-.26386-.05146.4653.4653 0 00-.37637.26479.384.384 0 00-.02573.2007.24259.24259 0 01.01427.06128l.04865.14924c.0365.10573.06948.21427.11182.31625a5.504 5.504 0 001.345 2.13331 3.45348 3.45348 0 002.14406.90759c.73941.04959 1.93167-.10854 2.96628-.02059a8.92987 8.92987 0 013.18826.77192 6.27365 6.27365 0 011.45074.93145 5.07237 5.07237 0 01.62128.64093 3.60339 3.60339 0 01.52935.8449.82646.82646 0 01-.79485 1.17051l-.05052-.00328a5.35015 5.35015 0 00-2.65774.80374 19.09417 19.09417 0 00-2.60652 1.74407 42.38575 42.38575 0 00-4.69678 4.377l-.00889.00936a.77459.77459 0 01-1.09495.03976l-.06082-.06315a38.49661 38.49661 0 00-4.71479-4.62778 19.7928 19.7928 0 00-5.54916-3.36744 8.75528 8.75528 0 00-1.52326-.37519 4.76515 4.76515 0 00-1.49027-.05942.8759.8759 0 00-.39578.14175c-.01147-.00046-.0524.072.0138.27883a4.44479 4.44479 0 00.77964 1.24723 32.1286 32.1286 0 004.90964 4.44673l.0131.01029a.4437.4437 0 01-.3745.78268c-2.61143-.62409-5.243-1.20466-7.88247-1.69588-1.31881-.24608-2.64838-.451-3.9707-.57169a2.75525 2.75525 0 00-.44538-.02339c-.065-.00468-.08117.036-.0269-.022a.1443.1443 0 00.0379-.12023c.00959.00187-.00609-.008.01169.01918a2.991 2.991 0 00.59812.64233c.49473.42759 1.03367.82712 1.57636 1.21776 4.38075 3.10826 9.05671 5.81045 13.5411 8.83029.55859.38268 1.11437.771 1.658 1.18595.27157.20865.54081.42151.803.65589a4.91738 4.91738 0 01.38666.38035.8775.8775 0 00.288.21333 3.53279 3.53279 0 001.79623.03509 15.30412 15.30412 0 001.91062-.48046 58.84741 58.84741 0 007.40036-3.07645q1.813-.87367 3.60089-1.80208l1.78337-.93707a4.10309 4.10309 0 012.2912-.48748 4.20411 4.20411 0 013.61726 2.76956 4.92157 4.92157 0 01.236 1.171l.07251 1.00957.12842 2.02009c.31578 5.38753.62829 10.77927.68771 16.1813.167 5.4039-.259 10.827.65332 16.02645a18.00647 18.00647 0 002.806 7.22891 61.26192 61.26192 0 005.21045 6.072 38.85891 38.85891 0 005.77466 5.5363 23.64382 23.64382 0 003.374 2.14547 15.59145 15.59145 0 003.72018 1.44559l.00983.00234a.08782.08782 0 01-.03462.17216z"/><path fill="#020202" d="M291.0511,134.99956l6.19874,4.51175-6.7716-3.59481a.54183.54183,0,0,1,.50806-.95718A.626.626,0,0,1,291.0511,134.99956Z"/><path d="M178.72771 179.8083c-.134-2.98943-.24912-5.93068-.33543-8.84339-.09567-2.91271-.15322-5.79688-.19158-8.68058-.01894-2.55809-.01894-5.11666.01918-7.67475-2.76885-.03836-5.53793-.0669-8.30678-.1338-2.93189-.06737-5.85419-.16327-8.78585-.28771-.08631 2.75926-.19158 5.52834-.2014 8.2876-.03813 2.94172.00982 5.883.12468 8.82421l.3642 8.82421c.07649 2.67318.07649 5.34636.04772 8.01018 2.72113.03836 5.44227.12444 8.21112.24889l4.65654.23952 4.79994.25871zm47.034-40.31758c-.14386-2.09821-.25871-4.12953-.2683-6.16085-.61332-.00936-1.21682-.02854-1.83015-.04772l-2.84534-.08608c-1.73425-.03836-3.46849-.17263-5.20274-.3069-.07672 1.054-.15321 2.1174-.182 3.17142-.01918 1.25519-.02877 2.50055.03836 3.74639.12444 2.2133.41192 4.42613.47906 6.63944 1.52325.00982 3.03715.08655 4.59877.19181 1.85892.14362 3.77515.34479 5.89255.575C226.18321 144.48247 225.93409 141.93373 225.76169 139.49072zm0 0c-.14386-2.09821-.25871-4.12953-.2683-6.16085-.61332-.00936-1.21682-.02854-1.83015-.04772l-2.84534-.08608c-1.73425-.03836-3.46849-.17263-5.20274-.3069-.07672 1.054-.15321 2.1174-.182 3.17142-.01918 1.25519-.02877 2.50055.03836 3.74639.12444 2.2133.41192 4.42613.47906 6.63944 1.52325.00982 3.03715.08655 4.59877.19181 1.85892.14362 3.77515.34479 5.89255.575C226.18321 144.48247 225.93409 141.93373 225.76169 139.49072zm-47.034 40.31758c-.134-2.98943-.24912-5.93068-.33543-8.84339-.09567-2.91271-.15322-5.79688-.19158-8.68058-.01894-2.55809-.01894-5.11666.01918-7.67475-2.76885-.03836-5.53793-.0669-8.30678-.1338-2.93189-.06737-5.85419-.16327-8.78585-.28771-.08631 2.75926-.19158 5.52834-.2014 8.2876-.03813 2.94172.00982 5.883.12468 8.82421l.3642 8.82421c.07649 2.67318.07649 5.34636.04772 8.01018 2.72113.03836 5.44227.12444 8.21112.24889l4.65654.23952 4.79994.25871zm0 0c-.134-2.98943-.24912-5.93068-.33543-8.84339-.09567-2.91271-.15322-5.79688-.19158-8.68058-.01894-2.55809-.01894-5.11666.01918-7.67475-2.76885-.03836-5.53793-.0669-8.30678-.1338-2.93189-.06737-5.85419-.16327-8.78585-.28771-.08631 2.75926-.19158 5.52834-.2014 8.2876-.03813 2.94172.00982 5.883.12468 8.82421l.3642 8.82421c.07649 2.67318.07649 5.34636.04772 8.01018 2.72113.03836 5.44227.12444 8.21112.24889l4.65654.23952 4.79994.25871zm47.034-40.31758c-.14386-2.09821-.25871-4.12953-.2683-6.16085-.61332-.00936-1.21682-.02854-1.83015-.04772l-2.84534-.08608c-1.73425-.03836-3.46849-.17263-5.20274-.3069-.07672 1.054-.15321 2.1174-.182 3.17142-.01918 1.25519-.02877 2.50055.03836 3.74639.12444 2.2133.41192 4.42613.47906 6.63944 1.52325.00982 3.03715.08655 4.59877.19181 1.85892.14362 3.77515.34479 5.89255.575C226.18321 144.48247 225.93409 141.93373 225.76169 139.49072zm0 0c-.14386-2.09821-.25871-4.12953-.2683-6.16085-.61332-.00936-1.21682-.02854-1.83015-.04772l-2.84534-.08608c-1.73425-.03836-3.46849-.17263-5.20274-.3069-.07672 1.054-.15321 2.1174-.182 3.17142-.01918 1.25519-.02877 2.50055.03836 3.74639.12444 2.2133.41192 4.42613.47906 6.63944 1.52325.00982 3.03715.08655 4.59877.19181 1.85892.14362 3.77515.34479 5.89255.575C226.18321 144.48247 225.93409 141.93373 225.76169 139.49072zm-47.034 40.31758c-.134-2.98943-.24912-5.93068-.33543-8.84339-.09567-2.91271-.15322-5.79688-.19158-8.68058-.01894-2.55809-.01894-5.11666.01918-7.67475-2.76885-.03836-5.53793-.0669-8.30678-.1338-2.93189-.06737-5.85419-.16327-8.78585-.28771-.08631 2.75926-.19158 5.52834-.2014 8.2876-.03813 2.94172.00982 5.883.12468 8.82421l.3642 8.82421c.07649 2.67318.07649 5.34636.04772 8.01018 2.72113.03836 5.44227.12444 8.21112.24889l4.65654.23952 4.79994.25871zm0 0c-.134-2.98943-.24912-5.93068-.33543-8.84339-.09567-2.91271-.15322-5.79688-.19158-8.68058-.01894-2.55809-.01894-5.11666.01918-7.67475-2.76885-.03836-5.53793-.0669-8.30678-.1338-2.93189-.06737-5.85419-.16327-8.78585-.28771-.08631 2.75926-.19158 5.52834-.2014 8.2876-.03813 2.94172.00982 5.883.12468 8.82421l.3642 8.82421c.07649 2.67318.07649 5.34636.04772 8.01018 2.72113.03836 5.44227.12444 8.21112.24889l4.65654.23952 4.79994.25871zm47.034-40.31758c-.14386-2.09821-.25871-4.12953-.2683-6.16085-.61332-.00936-1.21682-.02854-1.83015-.04772l-2.84534-.08608c-1.73425-.03836-3.46849-.17263-5.20274-.3069-.07672 1.054-.15321 2.1174-.182 3.17142-.01918 1.25519-.02877 2.50055.03836 3.74639.12444 2.2133.41192 4.42613.47906 6.63944 1.52325.00982 3.03715.08655 4.59877.19181 1.85892.14362 3.77515.34479 5.89255.575C226.18321 144.48247 225.93409 141.93373 225.76169 139.49072zm0 0c-.14386-2.09821-.25871-4.12953-.2683-6.16085-.61332-.00936-1.21682-.02854-1.83015-.04772l-2.84534-.08608c-1.73425-.03836-3.46849-.17263-5.20274-.3069-.07672 1.054-.15321 2.1174-.182 3.17142-.01918 1.25519-.02877 2.50055.03836 3.74639.12444 2.2133.41192 4.42613.47906 6.63944 1.52325.00982 3.03715.08655 4.59877.19181 1.85892.14362 3.77515.34479 5.89255.575C226.18321 144.48247 225.93409 141.93373 225.76169 139.49072zm-47.034 40.31758c-.134-2.98943-.24912-5.93068-.33543-8.84339-.09567-2.91271-.15322-5.79688-.19158-8.68058-.01894-2.55809-.01894-5.11666.01918-7.67475-2.76885-.03836-5.53793-.0669-8.30678-.1338-2.93189-.06737-5.85419-.16327-8.78585-.28771-.08631 2.75926-.19158 5.52834-.2014 8.2876-.03813 2.94172.00982 5.883.12468 8.82421l.3642 8.82421c.07649 2.67318.07649 5.34636.04772 8.01018 2.72113.03836 5.44227.12444 8.21112.24889l4.65654.23952 4.79994.25871zm50.35862-63.26463H156.40357a9.56431 9.56431 0 00-9.562 9.562v64.71117a9.564 9.564 0 009.562 9.562h58.723V186.31394c-2.32816.37333-4.65632.5745-6.9847.71859-2.39529.153-4.79058.19134-7.18587.21052-2.39529-.01918-4.79058-.0669-7.18587-.21052a69.86353 69.86353 0 01-7.17628-.74759 67.22686 67.22686 0 017.17628-.74713c2.39529-.15344 4.79058-.19181 7.18587-.211 2.39529.01918 4.79058.05755 7.18587.211a66.17126 66.17126 0 016.9847.71859v-6.95616a64.45111 64.45111 0 01-7.13792.74759c-2.37611.153-4.75221.20117-7.12832.21052-2.3857-.01918-4.76181-.05754-7.13815-.21052a66.60064 66.60064 0 01-7.12833-.74759 66.69331 66.69331 0 017.12833-.73777c2.37634-.153 4.75245-.20117 7.13815-.22035 2.37611.01918 4.75221.05755 7.12832.211a69.40931 69.40931 0 017.13792.74713v-6.53418a69.01264 69.01264 0 01-6.9847.71859c-2.39529.15344-4.79058.19181-7.18587.21052-2.39529-.01871-4.79058-.05708-7.18587-.21052a69.73535 69.73535 0 01-7.17628-.7476 69.86229 69.86229 0 017.17628-.74712c2.39529-.15345 4.79058-.19181 7.18587-.211 2.39529.01918 4.79058.05754 7.18587.211a69.00689 69.00689 0 016.9847.71859v-.95812a9.566 9.566 0 019.562-9.57133H238.6483V126.10564A9.55817 9.55817 0 00229.08633 116.54367zm-56.29889 15.03277c4.05281-.153 8.10562-.19134 12.15843-.21052 4.05281.01918 8.10562.05754 12.15867.21052 4.06217.1441 8.115.34526 12.168.7476-4.053.40233-8.10585.6035-12.168.74712-4.053.15345-8.10586.19181-12.15867.211-4.05281-.01918-8.10562-.05754-12.15843-.211-4.05281-.14362-8.10562-.35415-12.15843-.74712C164.68182 131.93106 168.73463 131.72054 172.78744 131.57644zm0 7.57885c4.05281-.15345 8.10562-.20117 12.15843-.22035 4.05281.01918 8.10562.05754 12.15867.211 4.06217.14363 8.115.35415 12.168.74713-4.053.40233-8.10585.61332-12.168.74712-4.053.15345-8.10586.20117-12.15867.211-4.05281-.01918-8.10562-.05754-12.15843-.211-4.05281-.14362-8.10562-.34479-12.15843-.74712C164.68182 139.50008 168.73463 139.28956 172.78744 139.15529zm7.41581 23.51219c-.04795 2.99879-.10526 5.99758-.20117 8.96783q-.12947 4.45539-.32584 8.81485c-.11485 2.90289-.25871 5.76788-.41193 8.5655l-4.48391.26807-4.62777.23953c-3.13306.13426-6.33325.23017-9.52362.25871l-.82408.00982-.00959-.843c-.048-2.94171-.03836-5.883.04795-8.82467l.35462-8.82421c.11485-2.94125.1628-5.88249.12444-8.82421-.00959-2.94124-.12444-5.88249-.22035-8.8242l-.01918-.5076.54619-.01918c3.0947-.13427 6.18939-.23953 9.28409-.29707 3.09469-.07673 6.18939-.10526 9.28408-.15345l.95812-.01918.01918.99648C180.232 156.65025 180.22243 159.65887 180.20325 162.66748zm4.74262-14.42927c-4.05281-.01919-8.10562-.05755-12.15843-.211-4.05281-.1338-8.10562-.34479-12.15843-.7373 4.05281-.4028 8.10562-.61332 12.15843-.74759 4.05281-.15345 8.10562-.19181 12.15843-.21052 4.05281.00936 8.10562.05707 12.15867.21052 4.06217.13427 8.115.34479 12.168.74759-4.053.39251-8.10585.6035-12.168.74713C193.05149 148.18066 188.99868 148.22885 184.94587 148.23821zM207.9886 166.5093c-2.37611.15345-4.75221.19181-7.12832.211-2.3857-.01918-4.76181-.0669-7.13815-.22034a66.57489 66.57489 0 01-7.12833-.73777 66.59931 66.59931 0 017.12833-.74713c2.37634-.15345 4.75245-.19181 7.13815-.211 2.37611.00983 4.75221.05754 7.12832.211a64.3348 64.3348 0 017.13792.74713A69.27863 69.27863 0 01207.9886 166.5093zm0-7.30048c-2.37611.153-4.75221.19134-7.12832.21052-2.3857-.01918-4.76181-.05754-7.13815-.21052a69.09718 69.09718 0 01-7.12833-.7476 69.22327 69.22327 0 017.12833-.74712c2.37634-.15345 4.75245-.19181 7.13815-.211 2.37611.01918 4.75221.05754 7.12832.211a66.77555 66.77555 0 017.13792.74712A64.44874 64.44874 0 01207.9886 159.20882zm19.26757-19.09542c-.17239 2.54874-.42151 4.99175-.68022 7.24341-1.6767.22971-3.55457.43088-5.49.575-1.94477.1338-3.95691.22034-5.95945.21052l-.86221-.00936.00959-.843c0-2.501.364-4.99174.49823-7.48293.07649-1.24584.0669-2.4912.04772-3.74639-.03812-1.24536-.134-2.49119-.22034-3.73655l-.02854-.47906.55555-.04819c1.89705-.153 3.7941-.29707 5.69138-.34479l2.84534-.08608c.94876-.01918 1.89729-.06737 2.84581-.06737l1.01566.00983.00936 1.01566C227.56284 134.93967 227.4288 137.57449 227.25617 140.1134zm-1.76278-6.78353c-.61332-.00936-1.21682-.02854-1.83015-.04772l-2.84534-.08608c-1.73425-.03836-3.46849-.17263-5.20274-.3069-.07672 1.054-.15321 2.1174-.182 3.17142-.01918 1.25519-.02877 2.50055.03836 3.74639.12444 2.2133.41192 4.42613.47906 6.63944 1.52325.00982 3.03715.08655 4.59877.19181 1.85892.14362 3.77515.34479 5.89255.575-.25871-2.73072-.50783-5.27946-.68023-7.72247C225.61783 137.39251 225.503 135.36119 225.49339 133.32987zm-47.10111 37.635c-.09567-2.91271-.15322-5.79688-.19158-8.68058-.01894-2.55809-.01894-5.11666.01918-7.67475-2.76885-.03836-5.53793-.0669-8.30678-.1338-2.93189-.06737-5.85419-.16327-8.78585-.28771-.08631 2.75926-.19158 5.52834-.2014 8.2876-.03813 2.94172.00982 5.883.12468 8.82421l.3642 8.82421c.07649 2.67318.07649 5.34636.04772 8.01018 2.72113.03836 5.44227.12444 8.21112.24889l4.65654.23952 4.79994.25871-.40234-9.07309C178.59368 176.81887 178.47859 173.87762 178.39228 170.96491zm.33543 8.84339c-.134-2.98943-.24912-5.93068-.33543-8.84339-.09567-2.91271-.15322-5.79688-.19158-8.68058-.01894-2.55809-.01894-5.11666.01918-7.67475-2.76885-.03836-5.53793-.0669-8.30678-.1338-2.93189-.06737-5.85419-.16327-8.78585-.28771-.08631 2.75926-.19158 5.52834-.2014 8.2876-.03813 2.94172.00982 5.883.12468 8.82421l.3642 8.82421c.07649 2.67318.07649 5.34636.04772 8.01018 2.72113.03836 5.44227.12444 8.21112.24889l4.65654.23952 4.79994.25871zm47.034-40.31758c-.14386-2.09821-.25871-4.12953-.2683-6.16085-.61332-.00936-1.21682-.02854-1.83015-.04772l-2.84534-.08608c-1.73425-.03836-3.46849-.17263-5.20274-.3069-.07672 1.054-.15321 2.1174-.182 3.17142-.01918 1.25519-.02877 2.50055.03836 3.74639.12444 2.2133.41192 4.42613.47906 6.63944 1.52325.00982 3.03715.08655 4.59877.19181 1.85892.14362 3.77515.34479 5.89255.575C226.18321 144.48247 225.93409 141.93373 225.76169 139.49072zm0 0c-.14386-2.09821-.25871-4.12953-.2683-6.16085-.61332-.00936-1.21682-.02854-1.83015-.04772l-2.84534-.08608c-1.73425-.03836-3.46849-.17263-5.20274-.3069-.07672 1.054-.15321 2.1174-.182 3.17142-.01918 1.25519-.02877 2.50055.03836 3.74639.12444 2.2133.41192 4.42613.47906 6.63944 1.52325.00982 3.03715.08655 4.59877.19181 1.85892.14362 3.77515.34479 5.89255.575C226.18321 144.48247 225.93409 141.93373 225.76169 139.49072zm-47.034 40.31758c-.134-2.98943-.24912-5.93068-.33543-8.84339-.09567-2.91271-.15322-5.79688-.19158-8.68058-.01894-2.55809-.01894-5.11666.01918-7.67475-2.76885-.03836-5.53793-.0669-8.30678-.1338-2.93189-.06737-5.85419-.16327-8.78585-.28771-.08631 2.75926-.19158 5.52834-.2014 8.2876-.03813 2.94172.00982 5.883.12468 8.82421l.3642 8.82421c.07649 2.67318.07649 5.34636.04772 8.01018 2.72113.03836 5.44227.12444 8.21112.24889l4.65654.23952 4.79994.25871zm0 0c-.134-2.98943-.24912-5.93068-.33543-8.84339-.09567-2.91271-.15322-5.79688-.19158-8.68058-.01894-2.55809-.01894-5.11666.01918-7.67475-2.76885-.03836-5.53793-.0669-8.30678-.1338-2.93189-.06737-5.85419-.16327-8.78585-.28771-.08631 2.75926-.19158 5.52834-.2014 8.2876-.03813 2.94172.00982 5.883.12468 8.82421l.3642 8.82421c.07649 2.67318.07649 5.34636.04772 8.01018 2.72113.03836 5.44227.12444 8.21112.24889l4.65654.23952 4.79994.25871zm47.034-40.31758c-.14386-2.09821-.25871-4.12953-.2683-6.16085-.61332-.00936-1.21682-.02854-1.83015-.04772l-2.84534-.08608c-1.73425-.03836-3.46849-.17263-5.20274-.3069-.07672 1.054-.15321 2.1174-.182 3.17142-.01918 1.25519-.02877 2.50055.03836 3.74639.12444 2.2133.41192 4.42613.47906 6.63944 1.52325.00982 3.03715.08655 4.59877.19181 1.85892.14362 3.77515.34479 5.89255.575C226.18321 144.48247 225.93409 141.93373 225.76169 139.49072zm0 0c-.14386-2.09821-.25871-4.12953-.2683-6.16085-.61332-.00936-1.21682-.02854-1.83015-.04772l-2.84534-.08608c-1.73425-.03836-3.46849-.17263-5.20274-.3069-.07672 1.054-.15321 2.1174-.182 3.17142-.01918 1.25519-.02877 2.50055.03836 3.74639.12444 2.2133.41192 4.42613.47906 6.63944 1.52325.00982 3.03715.08655 4.59877.19181 1.85892.14362 3.77515.34479 5.89255.575C226.18321 144.48247 225.93409 141.93373 225.76169 139.49072zm-47.034 40.31758c-.134-2.98943-.24912-5.93068-.33543-8.84339-.09567-2.91271-.15322-5.79688-.19158-8.68058-.01894-2.55809-.01894-5.11666.01918-7.67475-2.76885-.03836-5.53793-.0669-8.30678-.1338-2.93189-.06737-5.85419-.16327-8.78585-.28771-.08631 2.75926-.19158 5.52834-.2014 8.2876-.03813 2.94172.00982 5.883.12468 8.82421l.3642 8.82421c.07649 2.67318.07649 5.34636.04772 8.01018 2.72113.03836 5.44227.12444 8.21112.24889l4.65654.23952 4.79994.25871zm47.034-40.31758c-.14386-2.09821-.25871-4.12953-.2683-6.16085-.61332-.00936-1.21682-.02854-1.83015-.04772l-2.84534-.08608c-1.73425-.03836-3.46849-.17263-5.20274-.3069-.07672 1.054-.15321 2.1174-.182 3.17142-.01918 1.25519-.02877 2.50055.03836 3.74639.12444 2.2133.41192 4.42613.47906 6.63944 1.52325.00982 3.03715.08655 4.59877.19181 1.85892.14362 3.77515.34479 5.89255.575C226.18321 144.48247 225.93409 141.93373 225.76169 139.49072zm0 0c-.14386-2.09821-.25871-4.12953-.2683-6.16085-.61332-.00936-1.21682-.02854-1.83015-.04772l-2.84534-.08608c-1.73425-.03836-3.46849-.17263-5.20274-.3069-.07672 1.054-.15321 2.1174-.182 3.17142-.01918 1.25519-.02877 2.50055.03836 3.74639.12444 2.2133.41192 4.42613.47906 6.63944 1.52325.00982 3.03715.08655 4.59877.19181 1.85892.14362 3.77515.34479 5.89255.575C226.18321 144.48247 225.93409 141.93373 225.76169 139.49072zM544.65419 156.16137c-7.52715.05053-15.05406.04725-22.581.14222l-22.581.32281c-7.52715.13707-15.05406.15531-22.581.21052-3.78334.02526-7.48294.0538-11.33481-.0262a11.06168 11.06168 0 01-9.44221-6.5819 10.36751 10.36751 0 01-.80631-2.89961 11.72306 11.72306 0 01-.10549-1.50126l.01193-1.41613.062-5.64483.12585-11.29061.12842-11.2906.05707-11.29061c.05778-7.52691.02457-15.05383-.00467-22.58074l-.01919-5.64531a14.51608 14.51608 0 01.19228-2.88043 11.27666 11.27666 0 01.95391-2.75364 10.69311 10.69311 0 013.91363-4.268 10.82909 10.82909 0 015.588-1.63085c15.05407-.11041 30.1079-.30035 45.162-.34619l22.581-.08983c3.78732-.00842 7.47382-.04678 11.34394.0248a11.2293 11.2293 0 019.59636 6.66564 10.97754 10.97754 0 01.83625 2.94452 11.92568 11.92568 0 01.1207 1.52793l.0014 1.41706-.00866 5.6453c-.00374 3.76322-.00561 7.52692-.05239 11.29061-.07462 7.52691-.12024 15.05383-.25918 22.58074l-.3352 22.58122-.05942 5.64483a14.21505 14.21505 0 01-.22923 2.84347 11.08258 11.08258 0 01-.97426 2.68722 10.48256 10.48256 0 01-9.30069 5.60787zm0-.17637a10.26876 10.26876 0 005.30051-1.53074 10.15231 10.15231 0 003.72837-4.04158 10.76167 10.76167 0 00.91461-2.61423 13.84885 13.84885 0 00.18971-2.77564L554.728 139.378l-.3352-22.58122c-.13918-7.52691-.18456-15.05383-.25918-22.58074-.047-3.76369-.04865-7.52739-.05239-11.29061l-.00866-5.6453-.00561-1.40536A10.12287 10.12287 0 00553.96 74.592a9.1508 9.1508 0 00-.70689-2.46359 9.389 9.389 0 00-8.04293-5.55408c-.41216-.02947-.87929-.03181-1.35648-.02714l-1.41121.00234-2.82265.00421-5.6453-.0159-22.581-.08983c-15.05406-.04584-30.10789-.23578-45.162-.34619a9.9275 9.9275 0 00-8.82771 5.28133 10.53522 10.53522 0 00-.93519 2.54734 13.49375 13.49375 0 00-.2269 2.73867l-.019 5.64531c-.02924 7.52691-.06245 15.05383-.00491 22.58074l.05731 11.29061.12842 11.2906.12561 11.29061.062 5.64483.01894 1.40677a10.325 10.325 0 00.12211 1.30946 9.81475 9.81475 0 00.73683 2.5085 9.55774 9.55774 0 008.19731 5.63735l11.24476.03555c7.52692.05521 15.05383.07345 22.581.21053l22.581.3228C529.60013 155.93775 537.127 155.93447 544.65419 155.985z"/><path d="M583.72687,226.2596c-7.52691.05052-15.05406.04725-22.581.14222l-22.581.3228c-7.52692.13708-15.05407.15532-22.581.21053-3.78334.02573-7.48271.0538-11.33482-.0262a11.06,11.06,0,0,1-9.44221-6.5819,10.37535,10.37535,0,0,1-.8063-2.89961,11.723,11.723,0,0,1-.10527-1.50127l.01193-1.41565.062-5.6453.12561-11.29061.12842-11.29061.05731-11.29014c.05755-7.52738.02433-15.05429-.00491-22.58121l-.01895-5.6453a14.511,14.511,0,0,1,.192-2.88,11.2733,11.2733,0,0,1,.9539-2.75412,10.69787,10.69787,0,0,1,3.91363-4.268,10.82866,10.82866,0,0,1,5.588-1.63039c15.05406-.11087,30.10812-.30081,45.16219-.34666l22.581-.08935c3.78731-.00889,7.47358-.04725,11.3437.02479a11.22854,11.22854,0,0,1,9.5966,6.66564,10.98516,10.98516,0,0,1,.83624,2.94452,11.95163,11.95163,0,0,1,.1207,1.52747l.00141,1.41705-.00866,5.64531c-.00374,3.76369-.00561,7.52691-.05239,11.2906-.07462,7.52692-.12024,15.05383-.25942,22.58075l-.3352,22.58121-.05941,5.6453a14.22991,14.22991,0,0,1-.229,2.843,11.07654,11.07654,0,0,1-.97449,2.68721,10.47954,10.47954,0,0,1-9.3007,5.60788Zm0-.17637a10.26479,10.26479,0,0,0,5.30075-1.53027,10.15957,10.15957,0,0,0,3.72814-4.04159,10.74554,10.74554,0,0,0,.9146-2.6147,13.84343,13.84343,0,0,0,.18994-2.77517l-.05964-5.6453-.3352-22.58121c-.139-7.52692-.18456-15.05383-.25918-22.58075-.04679-3.76369-.04866-7.52691-.0524-11.2906l-.00865-5.64531-.00562-1.40536a10.12294,10.12294,0,0,0-.10666-1.28279,9.16843,9.16843,0,0,0-.70689-2.46359,9.38943,9.38943,0,0,0-8.04317-5.55361c-.41192-.02947-.87929-.03181-1.35624-.02713l-1.41144.00187-2.82265.00421-5.64507-.01591-22.581-.08935c-15.05407-.04585-30.10813-.23579-45.16219-.34666a9.92751,9.92751,0,0,0-8.82772,5.28133,10.55531,10.55531,0,0,0-.93519,2.54733,13.49389,13.49389,0,0,0-.22666,2.73868l-.01919,5.6453c-.02923,7.52692-.06245,15.05383-.00467,22.58121L495.348,186.284l.12842,11.29061.12585,11.29061.062,5.6453.01895,1.4063a10.27483,10.27483,0,0,0,.12211,1.30945,9.79054,9.79054,0,0,0,.73683,2.50851,9.55658,9.55658,0,0,0,8.19708,5.63735l11.24476.03555c7.52691.0552,15.05406.07345,22.581.21052l22.581.32281C568.67281,226.036,576.2,226.0327,583.72687,226.08323Z"/><path d="M505.30443 135.71733a10.31866 10.31866 0 00-10.31867 10.31872v10.03706h49.66839a10.31882 10.31882 0 0010.31877-10.31872V135.71733zM187.98864 295.941c-13.95186-.02807-27.90371.255-41.85534.465-6.976.13708-13.95185.15532-20.9279.21053-3.50755.02619-6.9316.05146-10.50816-.02386a10.30588 10.30588 0 01-8.79637-6.13466 9.63412 9.63412 0 01-.74993-2.70172 10.92562 10.92562 0 01-.09708-1.39834l.01217-1.31273.062-5.23174.12585-10.464.12842-10.464.05707-10.46395c.05778-6.97582.02457-13.95163-.00467-20.92744l-.01918-5.23221a13.50366 13.50366 0 01.17684-2.67458 10.49252 10.49252 0 01.88466-2.56 9.94657 9.94657 0 013.63551-3.96953 10.06911 10.06911 0 015.19525-1.51951q20.92779-.254 41.85557-.34667l20.92767-.08935c3.512-.00983 6.92271-.04491 10.51751.02245a10.47435 10.47435 0 018.95053 6.2184 10.24181 10.24181 0 01.77987 2.74663 11.123 11.123 0 01.11228 1.42454l.00117 1.31413-.00866 5.23175c-.00374 3.48814-.00561 6.97581-.05239 10.46395-.07462 6.97581-.12024 13.95162-.25918 20.9279l-.3352 20.92743-.05942 5.23221a13.21076 13.21076 0 01-.2138 2.63763 10.26834 10.26834 0 01-.90525 2.4926A9.75024 9.75024 0 01187.98864 295.941zm0-.17637a9.50884 9.50884 0 008.358-5.163 9.9549 9.9549 0 00.84537-2.42009 12.80555 12.80555 0 00.1745-2.56979l-.05941-5.23221-.3352-20.92743c-.13918-6.97628-.18479-13.95209-.25941-20.9279-.04679-3.48814-.04866-6.97581-.0524-10.46395l-.00842-5.23175-.00538-1.302a9.31688 9.31688 0 00-.09848-1.17986 8.42312 8.42312 0 00-.65052-2.26617A8.63469 8.63469 0 00188.5 212.97417c-.37754-.02714-.81052-.029-1.25308-.0248l-1.30782.00234-2.61611.00421-5.232-.01637-20.92767-.08936q-20.92779-.07719-41.85557-.34666a9.19679 9.19679 0 00-8.15685 4.87245 9.76051 9.76051 0 00-.86595 2.35318 12.46338 12.46338 0 00-.21146 2.53283l-.01895 5.23221c-.02924 6.97581-.06245 13.95162-.00491 20.92744l.05731 10.46395.12842 10.464.12561 10.464.062 5.23174.01871 1.30337a9.57217 9.57217 0 00.11368 1.20654 9.07749 9.07749 0 00.68046 2.31061 8.80221 8.80221 0 007.55148 5.1901l10.4181.03322c6.97605.0552 13.95186.07345 20.9279.21052C160.08493 295.50918 174.03678 295.79222 187.98864 295.76462z"/><path fill="#fff" d="M215.32768 172.73705c-.0669.00983-.134.01918-.20116.029v-.05754C215.19365 172.71834 215.26078 172.7277 215.32768 172.73705zM215.32768 186.28494c-.0669.00982-.134.01918-.20116.029v-.05754C215.19365 186.26576 215.26078 186.27558 215.32768 186.28494z"/><path d="M228.08587 175.78543c4.05375-.3649 8.10749-.55578 12.16124-.68537 4.05375-.14081 8.10749-.17824 12.16124-.19555 4.05374.015 8.10749.05286 12.16123.19274 4.05352.12913 8.10726.32094 12.161.68818-4.05375.36678-8.10749.55859-12.161.68771-4.05374.13988-8.10749.17778-12.16123.19322-4.05375-.01778-8.10749-.05521-12.16124-.196C236.19336 176.34075 232.13962 176.14987 228.08587 175.78543zM228.08587 183.35679c4.05375-.36444 8.10749-.55531 12.16124-.6849 4.05375-.14082 8.10749-.17824 12.16124-.196 4.05374.01544 8.10749.05333 12.16123.19321 4.05352.12912 8.10726.32093 12.161.68771-4.05375.36725-8.10749.55906-12.161.68818-4.05374.13988-8.10749.17777-12.16123.19275-4.05375-.01731-8.10749-.05474-12.16124-.19556C236.19336 183.91257 232.13962 183.7217 228.08587 183.35679zM228.08587 190.74616c4.05375-.3649 8.10749-.55578 12.16124-.68537 4.05375-.14035 8.10749-.17824 12.16124-.19555 4.05374.01544 8.10749.05287 12.16123.19321 4.05352.12913 8.10726.32047 12.161.68771-4.05375.36678-8.10749.55859-12.161.68771-4.05374.14035-8.10749.17778-12.16123.19322-4.05375-.01778-8.10749-.05521-12.16124-.19555C236.19336 191.30148 232.13962 191.11107 228.08587 190.74616zM294.03421 190.80839c-1.69845.21473-3.57281.39718-5.51057.52864-1.94079.12491-3.94637.20959-5.93746.19509l-.78806-.00562.00187-.78034c.00609-2.49353.3352-4.98706.46339-7.4806.06783-1.24676.05965-2.49353.0393-3.7403-.02948-1.24629-.12328-2.49306-.1993-3.73983l-.0269-.44444.5097-.03836c1.89752-.14222 3.79527-.27742 5.69279-.32233l2.84628-.07719c.949-.02106 1.89775-.06457 2.84651-.05708l.92981.007.00959.93238c.02713 2.60582-.09614 5.22753-.251 7.76551C294.50087 186.09079 294.2714 188.538 294.03421 190.80839zm-.12467-.12445c-.23719-2.71669-.4669-5.25653-.62619-7.70328-.15462-2.44909-.2779-4.81444-.25076-7.19523l.93917.93894c-.94876.00748-1.89752-.036-2.84651-.05708l-2.84628-.07719c-1.89752-.04491-3.79527-.18011-5.69279-.32233l.48257-.48234c-.07579 1.24677-.16982 2.49354-.1993 3.73983-.02035 1.24677-.02854 2.49354.0393 3.7403.12819 2.49354.4573 4.98707.46339 7.4806l-.786-.78642c1.80419-.014 3.59364.07064 5.44811.19556C289.89181 190.28676 291.81272 190.46921 293.90954 190.68394zM246.72351 232.47472l-4.498.24421-4.635.21707c-3.12838.124-6.31875.218-9.50467.2414l-.75531.00561-.00982-.771c-.0379-2.94171-.03673-5.8839.04163-8.82561l.33006-8.82561q.15823-4.41327.11766-8.82608c-.01076-2.94171-.11579-5.8839-.20679-8.82561l-.01426-.46362.49683-.01918c3.09587-.11836 6.19173-.21754 9.28759-.276l9.2876-.13848.88209-.0131.015.9104c.04959 2.99505.04655 6.00132.02152 9.00105-.036 2.99785-.09076 5.99149-.1897 8.95239C247.23883 221.00072 246.99205 226.84719 246.72351 232.47472zm-.12467-.12491c-.26854-6.1398-.51509-12.06159-.66619-17.89075-.09918-2.923-.15369-5.81372-.18994-8.6993-.025-2.88417-.02807-5.76179.02152-8.65064l.89683.89683-9.2876-.13848c-3.09586-.05848-6.19172-.15766-9.28759-.276l.48257-.48233c-.091 2.94171-.196 5.8839-.20678 8.82561q-.04491 4.41327.11766 8.82608l.33 8.82561c.07836 2.94171.07953 5.8839.04164 8.82561l-.76514-.7649c3.006.02339 6.0074.11742 9.07075.2414zM254.0502 201.92356c3.30451-.36491 6.609-.55579 9.91355-.68537 3.30451-.14035 6.60879-.17825 9.91331-.19556 3.30452.01544 6.609.05287 9.91355.19322 3.30428.12912 6.6088.32093 9.91331.68771-3.30451.36677-6.609.55858-9.91331.68771-3.30452.14034-6.609.17777-9.91355.19321-3.30452-.01778-6.6088-.0552-9.91331-.19555C260.65923 202.47887 257.35471 202.28846 254.0502 201.92356zM254.0502 209.2189c3.30451-.36491 6.609-.55579 9.91355-.68538 3.30451-.14034 6.60879-.17824 9.91331-.19555 3.30452.01544 6.609.05287 9.91355.19322 3.30428.12912 6.6088.32046 9.91331.68771-3.30451.36677-6.609.55858-9.91331.68771-3.30452.14034-6.609.17777-9.91355.19321-3.30452-.01778-6.6088-.0552-9.91331-.196C260.65923 209.77421 257.35471 209.58333 254.0502 209.2189zM254.0502 216.19751c3.32112-.3649 6.64224-.55578 9.96337-.68537 3.32112-.14081 6.64225-.17824 9.96337-.19555 3.32113.01544 6.642.05286 9.96314.19275 3.32113.12912 6.64225.32093 9.96337.68817-3.32112.36678-6.64224.55859-9.96337.68771-3.32112.14035-6.642.17778-9.96314.19322-3.32112-.01778-6.64225-.05521-9.96337-.196C260.69244 216.75283 257.37132 216.562 254.0502 216.19751zM254.0502 222.76538c3.30451-.36491 6.609-.55532 9.91355-.68491 3.30451-.14081 6.60879-.17824 9.91331-.196 3.30452.01544 6.609.05287 9.91355.19322 3.30428.12912 6.6088.32093 9.91331.68771-3.30451.36724-6.609.55859-9.91331.68771-3.30452.14035-6.609.17777-9.91355.19321-3.30452-.01731-6.6088-.0552-9.91331-.19555C260.65923 223.32116 257.35471 223.13028 254.0502 222.76538zM254.0502 229.744c3.32112-.36491 6.64224-.55532 9.96337-.68537 3.32112-.14035 6.64225-.17778 9.96337-.19556 3.32113.01544 6.642.05287 9.96314.19322 3.32113.12912 6.64225.32093 9.96337.68771-3.32112.36677-6.64224.55858-9.96337.68771-3.32112.14034-6.642.17777-9.96314.19321-3.32112-.01731-6.64225-.0552-9.96337-.19555C260.69244 230.29978 257.37132 230.1089 254.0502 229.744z"/><path d="M297.36937 246.1026c-13.95185-.0276-27.90371.25544-41.85557.465-6.97581.13707-13.95185.15532-20.92767.21052-3.50778.02667-6.93183.05146-10.50816-.02386a10.30647 10.30647 0 01-8.7966-6.13465 9.62513 9.62513 0 01-.7497-2.70172 10.922 10.922 0 01-.09731-1.39834l.0124-1.31227.062-5.23221.12561-10.46348.12842-10.46395.05731-10.464c.05754-6.97581.02432-13.95209-.00492-20.9279l-.01894-5.23175a13.48442 13.48442 0 01.1766-2.67458 10.48666 10.48666 0 01.8849-2.56A9.94153 9.94153 0 01219.493 163.22a10.06944 10.06944 0 015.19548-1.51951q20.92779-.254 41.85534-.34666l20.9279-.08936c3.51176-.00982 6.92248-.04491 10.51728.02246a10.47412 10.47412 0 018.95076 6.21839 10.22983 10.22983 0 01.77964 2.74616 11.1288 11.1288 0 01.11251 1.425l.00094 1.31367-.00843 5.23221c-.00374 3.48767-.00561 6.97581-.05239 10.46348-.07462 6.97628-.12024 13.95209-.25941 20.9279l-.3352 20.92791-.05942 5.23174a13.188 13.188 0 01-.2138 2.63762 10.27161 10.27161 0 01-.90525 2.49307A9.7488 9.7488 0 01297.36937 246.1026zm0-.17637a9.50689 9.50689 0 008.35778-5.1625 9.96207 9.96207 0 00.84561-2.42055 12.82085 12.82085 0 00.17426-2.56979l-.05941-5.23174-.3352-20.92791c-.139-6.97581-.18456-13.95162-.25918-20.9279-.04678-3.48767-.04865-6.97581-.0524-10.46348l-.00865-5.23221-.00538-1.302a9.289 9.289 0 00-.09848-1.17987 8.4248 8.4248 0 00-.65028-2.2657 8.63417 8.63417 0 00-7.39733-5.10636c-.37777-.02714-.81052-.02948-1.25308-.0248l-1.30805.00187-2.61588.00422-5.232-.01591-20.9279-.08936q-20.92745-.0779-41.85534-.34666a9.19564 9.19564 0 00-8.15685 4.87245 9.74431 9.74431 0 00-.86618 2.35318 12.47987 12.47987 0 00-.21123 2.53283l-.01918 5.23175c-.02924 6.97581-.06246 13.95209-.00468 20.9279l.05708 10.464.12842 10.46395.12584 10.46348.062 5.23221.01871 1.30338a9.47818 9.47818 0 00.11369 1.20606 9.07089 9.07089 0 00.68022 2.31061 8.80256 8.80256 0 007.55171 5.19011l10.4181.03368c6.97582.05474 13.95186.073 20.92767.21006C269.46566 245.67126 283.41752 245.9543 297.36937 245.92623zM470.00749 124.75642c5.90588-.48467 11.81177-.7387 17.71765-.91086 5.90589-.18714 11.81177-.23673 17.71765-.26012 5.90589.02059 11.81177.07018 17.71766.25637 5.90588.1717 11.81177.42666 17.71765.91461-5.90588.48795-11.81177.74291-17.71765.91461-5.90589.18619-11.81177.23625-17.71766.25637-5.90588-.02339-11.81176-.073-17.71765-.26012C481.81926 125.49512 475.91337 125.24156 470.00749 124.75642z"/><path d="M475.86659 76.58819c.48491 4.5997.7387 9.19987.91086 13.79958.18714 4.60017.237 9.19987.26035 13.8-.02058 4.5997-.07041 9.19988-.25684 13.79958-.17169 4.60017-.42642 9.19987-.91437 13.80005-.48771-4.60018-.74268-9.19988-.91437-13.8-.18643-4.5997-.23626-9.19988-.25661-13.79958.02316-4.60017.07322-9.19987.26011-13.8C475.12812 85.78806 475.38168 81.18789 475.86659 76.58819zM494.98493 125.09419c-2.04349.124-4.1824.23111-6.36132.31626-2.17331.10339-4.40158.14222-6.61675.1614l-.51041.00468-.00888-.524c-.06012-3.5775.15087-7.15546.27906-10.733.05122-1.789.0821-3.578.04678-5.36647-.00678-1.789-.06713-3.578-.12725-5.36648l-.01053-.30736.33123-.01357q3.23433-.13263 6.46845-.19649l6.46821-.094.60584-.00889.00538.62034c.01544 1.8236.025 3.65749-.00959 5.4811-.01871 1.82734-.07158 3.64439-.12959 5.44741C495.32176 118.131 495.151 121.67623 494.98493 125.09419zm-.08281-.0828c-.16608-3.7375-.33684-7.34774-.43064-10.88734-.058-1.77495-.11087-3.53539-.12959-5.28554-.03462-1.7539-.025-3.49843-.00935-5.25186l.611.611-6.46821-.094q-3.23435-.06526-6.46845-.19649l.32069-.32046c-.06011 1.78851-.12046 3.5775-.12725 5.36648-.03555 1.78851-.00444 3.57749.04655 5.36647.12842 3.5775.33918 7.15546.2793 10.733l-.51929-.51929c2.09728.01964 4.181.05847 6.32014.1614C490.46007 124.77981 492.63338 124.88741 494.90212 125.01139z"/><path d="M507.89516,125.09419c-2.07389.08842-4.20322.1993-6.38284.2648-2.17237.07859-4.38193.15251-6.59523.1628l-.46432.00234-.00515-.47157c-.02783-2.662-.07883-5.32438-.04257-7.98633.02971-2.66242.14058-5.32437.21193-7.98679q.14314-3.99293.11532-7.98632-.01439-3.99363-.13591-7.98679l-.00912-.31064.32982-.0103q6.46833-.2007,12.93667-.24841l.56326-.00468.00609.574c.02806,2.69516.06081,5.40156.04584,8.10421-.0159,2.70032-.03976,5.40391-.10853,8.079-.06784,2.67318-.10527,5.35571-.2007,7.98445Zm-.08281-.0828-.26455-8.15334c-.09544-2.69564-.13287-5.337-.2007-7.9882-.06877-2.64932-.09263-5.2701-.10854-7.89416-.015-2.62172.01778-5.23969.04585-7.86936l.56935.56934q-6.46834-.054-12.93667-.24841l.3207-.32093q-.11509,3.99361-.13614,7.98679-.02492,3.99293.11555,7.98632c.07135,2.66242.18222,5.32437.21193,7.98679.03626,2.66195-.01474,5.32437-.04281,7.98633l-.46923-.46924c2.09915.0103,4.20181.08468,6.34143.16281Z"/><path d="M520.83182,125.09419l-6.38938.24889c-2.17471.05707-4.37585.15859-6.58868.16467l-.4524.00141-.0028-.4566c-.01825-3.05446-.09427-6.10893-.06526-9.16339.01614-3.054.12444-6.10845.20163-9.16291.10035-3.05446.127-6.10893.13684-9.16339l-.03743-4.58146L507.53306,88.4l-.007-.312.32772-.00888c4.31222-.11649,8.62444-.20445,12.93666-.23532l.55251-.00421.00374.56046c.021,3.08533.07462,6.18564.05778,9.28034.00327,3.097-.04211,6.18752-.09661,9.26022-.07181,3.06429-.1069,6.14121-.2035,9.16245Zm-.0828-.0828-.27251-9.33508L520.273,106.512c-.0545-3.03622-.09988-6.05465-.0966-9.06607-.01685-3.01423.03672-6.02285.05777-9.046l.55625.55625c-4.31222-.03135-8.62444-.1193-12.93666-.23579l.32069-.32046-.10152,4.58145-.03719,4.58146c.00983,3.05446.03649,6.10893.13684,9.16339.07719,3.05446.1855,6.10892.20164,9.16291.029,3.05446-.047,6.10893-.06527,9.16339l-.45519-.4552c2.09962.00608,4.2107.1076,6.34821.16514Z"/><path d="M533.76849 125.09419c-2.07389.08842-4.20322.1993-6.38284.2648-2.17236.07859-4.38192.15251-6.59523.1628l-.46432.00234-.00491-.47157c-.02807-2.662-.07906-5.32438-.04281-7.98633.02971-2.66242.14059-5.32437.21193-7.98679q.14316-3.99293.11555-7.98632-.01439-3.99363-.13614-7.98679l-.00912-.31064.32982-.0103q6.46833-.2007 12.93667-.24841l.56327-.00468.00608.574c.02807 2.69516.06081 5.40156.04584 8.10421-.0159 2.70032-.03976 5.40391-.10853 8.079-.06784 2.67318-.10526 5.35571-.2007 7.98445zm-.08281-.0828l-.26455-8.15334c-.09544-2.69564-.13287-5.337-.2007-7.9882-.06877-2.64932-.09263-5.2701-.10854-7.89416-.01474-2.62172.01778-5.23969.04585-7.86936l.56935.56934q-6.46833-.054-12.93667-.24841l.3207-.32093c-.07672 2.66241-.12655 5.32437-.13591 7.98679q-.02526 3.99293.11532 7.98632c.07135 2.66242.18222 5.32437.21193 7.98679.03626 2.66195-.01473 5.32437-.04257 7.98633l-.46947-.46924c2.09915.0103 4.20182.08468 6.34144.16281zM520.92656 203.0529c1.84138-5.22707 3.8086-10.40173 5.85162-15.54505q1.52523-3.85961 3.11036-7.69534l.19626-.48a3.5233 3.5233 0 01.32982-.59929 2.86175 2.86175 0 011.02267-.93145 3.17941 3.17941 0 012.67178-.18152 3.234 3.234 0 011.14151.77987 4.10192 4.10192 0 01.65776 1.0704l.88631 1.876c2.33166 5.01981 4.54614 10.0967 6.93277 15.08891l.90478 1.86758a4.68206 4.68206 0 00.472.858 1.82291 1.82291 0 00.70619.56888 2.08465 2.08465 0 001.77448.0145 1.85651 1.85651 0 00.70993-.55437 4.2997 4.2997 0 00.47789-.84584c1.23764-2.47435 2.40816-4.98332 3.61422-7.47358q3.55083-7.50586 7.246-14.93828l1.84863-3.7155.92444-1.85776.46221-.92911c.09006-.17029.12491-.27414.26011-.49964a3.15006 3.15006 0 01.41567-.58385 3.25849 3.25849 0 015.06169.30315 4.21653 4.21653 0 01.34292.59836l.21777.47063.43578.94175.86666 1.88535c4.55339 10.08641 9.00175 20.221 13.12777 30.50438l-.16023.07392c-5.14168-9.81507-9.9608-19.77891-14.67512-29.79094l-.87086-1.88348-.43322-.94268-.2166-.47111a2.2101 2.2101 0 00-.16982-.30128 1.43192 1.43192 0 00-2.1698-.14924 2.7258 2.7258 0 00-.4166.67087l-.4821.91882-.96443 1.83717-1.9284 3.6748q-3.84591 7.355-7.86305 14.623c-1.31226 2.436-2.65984 4.8542-3.94053 7.30657a3.086 3.086 0 01-1.491 1.63413 2.6302 2.6302 0 01-2.239-.0379 3.1076 3.1076 0 01-1.4325-1.66921l-.92888-1.85542c-2.50289-4.93514-5.17794-9.78513-7.736-14.69313l-.94712-1.84653a2.886 2.886 0 00-.42853-.68724 1.68519 1.68519 0 00-.55976-.3766 1.604 1.604 0 00-1.33542.101 1.422 1.422 0 00-.49848.44865 1.95 1.95 0 00-.17637.30315l-.20374.47719q-1.62138 3.8203-3.29025 7.62c-2.22406 5.06754-4.52391 10.10326-6.94961 15.08658z"/><path d="M507.77235,203.0529c1.84138-5.22707,3.80861-10.40173,5.85162-15.54505q1.52525-3.85961,3.11037-7.69534l.19625-.48a3.524,3.524,0,0,1,.32982-.59929,2.8617,2.8617,0,0,1,1.02268-.93145,3.17939,3.17939,0,0,1,2.67177-.18152,3.234,3.234,0,0,1,1.14151.77987,4.09547,4.09547,0,0,1,.65777,1.0704l.8863,1.876c2.33167,5.01981,4.54614,10.0967,6.93277,15.08891l.90479,1.86758a4.68087,4.68087,0,0,0,.472.858,1.82458,1.82458,0,0,0,.70619.56888,2.08462,2.08462,0,0,0,1.77447.0145,1.85662,1.85662,0,0,0,.70994-.55437,4.30086,4.30086,0,0,0,.47812-.84584c1.23741-2.47435,2.40792-4.98332,3.614-7.47358q3.55119-7.50586,7.246-14.93828l1.84863-3.7155.92443-1.85776.46221-.92911c.09006-.17029.12515-.27414.26012-.49964a3.15,3.15,0,0,1,.41566-.58385,3.25849,3.25849,0,0,1,5.06169.30315,4.21556,4.21556,0,0,1,.34292.59836l.21777.47063.43579.94175.86665,1.88535c4.55339,10.08641,9.002,20.221,13.12778,30.50438l-.16.07392c-5.14192-9.81507-9.961-19.77891-14.67536-29.79094l-.87086-1.88348-.43321-.94268-.21661-.47111a2.18475,2.18475,0,0,0-.16982-.30128,1.4319,1.4319,0,0,0-2.16979-.14924,2.73278,2.73278,0,0,0-.41661.67087l-.4821.91882-.96443,1.83717-1.92839,3.6748q-3.84591,7.355-7.86305,14.623c-1.31227,2.436-2.65985,4.8542-3.9403,7.30657a3.08786,3.08786,0,0,1-1.491,1.63413,2.63073,2.63073,0,0,1-2.23927-.0379,3.1076,3.1076,0,0,1-1.4325-1.66921l-.92864-1.85542c-2.50312-4.93514-5.17817-9.78513-7.73627-14.69313l-.94712-1.84653a2.8936,2.8936,0,0,0-.4283-.68724,1.68594,1.68594,0,0,0-.56-.3766,1.6041,1.6041,0,0,0-1.33542.101,1.42391,1.42391,0,0,0-.49847.44865,1.94921,1.94921,0,0,0-.17638.30315l-.20373.47719q-1.6214,3.8203-3.29025,7.62c-2.22407,5.06754-4.52392,10.10326-6.94938,15.08658Z"/><path d="M548.8058 198.93731a2.33847 2.33847 0 01-4.18011-.031l-4.39621-8.92559-4.57784 8.9566a2.33848 2.33848 0 01-4.18012-.031l-4.71543-9.57374-5.74817 13.7545h49.35446l-11.22993-24.354zM153.10771 255.30762l3.58334 25.22726c-.05754.00936-.11485.00936-.1628.01918q-.54632.05755-1.09238.08608H155.321A25.90718 25.90718 0 01130.00744 264.515c-.00936-.04771-.02854-.08608-.03813-.12444-.13426-.32561-.2683-.661-.38338-.99648-.05755-.15344-.10527-.31625-.15322-.46923-.07672-.23017-.15321-.4697-.22994-.70923-.12444-.40233-.22993-.81449-.33543-1.22618-.11485-.45988-.21076-.92958-.30643-1.38946-.01918-.10526-.02877-.21052-.048-.31625-.06713-.37333-.12468-.73777-.1724-1.1111-.01918-.0959-.02877-.19181-.03836-.28771-.04795-.393-.08631-.77613-.11508-1.16864a1.55576 1.55576 0 01-.0096-.211c-.02877-.42152-.04795-.85286-.0573-1.27437v-.10526a25.72666 25.72666 0 011.29331-8.45041c.01918-.04819.03836-.10573.05754-.15345q.18667-.57473.40234-1.12092l.11508-.28772c.134-.32561.27766-.65122.42152-.97729.048-.11462.09567-.22035.14362-.32561.163-.33544.32585-.661.48865-.98666.04795-.08654.09591-.17263.13427-.25871q.33052-.61823.68981-1.20747c.03837-.05754.07649-.11508.11486-.182.20116-.32561.41215-.65169.62291-.96747.08608-.12491.1724-.23953.25871-.35462.03813-.05754.07649-.11508.11485-.1628zM153.85507 253.43958l-19.69891-15.27277a25.86381 25.86381 0 0135.38337-4.10053zM160.21709 279.92156c-.5366.13427-1.08279.24935-1.61939.34526l-3.57376-25.20808 16.01967-19.78546c.25871.23017.50783.45987.75695.6994.05754.04819.10549.09591.15344.14409.47906.45988.9483.93894 1.38923 1.43718a.00932.00932 0 00.00959.00935 25.6863 25.6863 0 012.50055 3.31505c.00959.00982.00959.01918.01918.029a25.82873 25.82873 0 011.92582 3.64065.13639.13639 0 01.01918.05755c.25871.59414.47906 1.19764.68982 1.811.03836.10526.07672.21052.10549.31625.20117.6035.38315 1.21636.53637 1.83951A25.89347 25.89347 0 01160.21709 279.92156z"/><path fill="#fff" d="M132.95851 239.67135l.46947-.6035c-.15321.20116-.30666.41169-.45029.62268zM134.137 238.14762l.01918.01919c-.20117.23952-.40234.48888-.6035.73776zM156.82532 280.52506c.21076-.02854.42152-.04772.63227-.07626l-.76654.10526v-.01918C156.72942 280.53488 156.77737 280.52506 156.82532 280.52506zM157.8887 280.38143c.23953-.02853.46947-.06689.709-.11461v.01871zM169.55872 234.0471l.74712.61332c-.24912-.20117-.5076-.4028-.76631-.59414zM171.0532 235.26392l-.00959.00936c-.22994-.20117-.46947-.40234-.709-.59368z"/></svg>